<svg width="50" height="54" viewBox="0 0 50 54" fill="none" xmlns="http://www.w3.org/2000/svg">
<g filter="url(#filter0_d_40_1836)">
<path fill-rule="evenodd" clip-rule="evenodd" d="M45.8332 24.9998C45.8332 36.5058 36.5058 45.8332 24.9998 45.8332C13.4939 45.8332 4.1665 36.5058 4.1665 24.9998C4.1665 13.4939 13.4939 4.1665 24.9998 4.1665C36.5058 4.1665 45.8332 13.4939 45.8332 24.9998ZM18.6866 18.6866C19.2968 18.0764 20.2861 18.0764 20.8963 18.6866L24.9998 22.7901L29.1032 18.6867C29.7134 18.0765 30.7027 18.0765 31.3129 18.6867C31.9231 19.2968 31.9231 20.2862 31.3129 20.8964L27.2095 24.9998L31.3129 29.1032C31.9231 29.7134 31.9231 30.7027 31.3129 31.3129C30.7027 31.9231 29.7134 31.9231 29.1032 31.3129L24.9998 27.2095L20.8963 31.313C20.2861 31.9232 19.2968 31.9232 18.6866 31.313C18.0764 30.7028 18.0764 29.7135 18.6866 29.1033L22.7901 24.9998L18.6866 20.8963C18.0764 20.2861 18.0764 19.2968 18.6866 18.6866Z" fill="#4F7B8E"/>
</g>
<defs>
<filter id="filter0_d_40_1836" x="-4" y="0" width="58" height="58" filterUnits="userSpaceOnUse" color-interpolation-filters="sRGB">
<feFlood flood-opacity="0" result="BackgroundImageFix"/>
<feColorMatrix in="SourceAlpha" type="matrix" values="0 0 0 0 0 0 0 0 0 0 0 0 0 0 0 0 0 0 127 0" result="hardAlpha"/>
<feOffset dy="4"/>
<feGaussianBlur stdDeviation="2"/>
<feComposite in2="hardAlpha" operator="out"/>
<feColorMatrix type="matrix" values="0 0 0 0 0 0 0 0 0 0 0 0 0 0 0 0 0 0 0.25 0"/>
<feBlend mode="normal" in2="BackgroundImageFix" result="effect1_dropShadow_40_1836"/>
<feBlend mode="normal" in="SourceGraphic" in2="effect1_dropShadow_40_1836" result="shape"/>
</filter>
</defs>
</svg>
